<?xml version="1.0" encoding="UTF-8" standalone="no"?>
<!-- Created with Inkscape (http://www.inkscape.org/) -->

<svg
   width="641mm"
   height="271mm"
   viewBox="0 0 641 271"
   version="1.1"
   id="svg1"
   sodipodi:docname="bst.svg"
   inkscape:version="1.4 (e7c3feb100, 2024-10-09)"
   xmlns:inkscape="http://www.inkscape.org/namespaces/inkscape"
   xmlns:sodipodi="http://sodipodi.sourceforge.net/DTD/sodipodi-0.dtd"
   xmlns="http://www.w3.org/2000/svg"
   xmlns:svg="http://www.w3.org/2000/svg">
  <sodipodi:namedview
     id="namedview1"
     pagecolor="#ffffff"
     bordercolor="#000000"
     borderopacity="0.25"
     inkscape:showpageshadow="2"
     inkscape:pageopacity="0.0"
     inkscape:pagecheckerboard="0"
     inkscape:deskcolor="#d1d1d1"
     inkscape:document-units="mm"
     inkscape:zoom="0.47380741"
     inkscape:cx="1224.1261"
     inkscape:cy="908.59702"
     inkscape:window-width="1920"
     inkscape:window-height="1174"
     inkscape:window-x="0"
     inkscape:window-y="0"
     inkscape:window-maximized="0"
     inkscape:current-layer="layer1"
     showgrid="false"
     showguides="true">
    <sodipodi:guide
       position="190.86502,277.98914"
       orientation="0,-1"
       id="guide8"
       inkscape:locked="false" />
  </sodipodi:namedview>
  <defs
     id="defs1">
    <rect
       x="-61.206303"
       y="757.69182"
       width="411.55963"
       height="428.44412"
       id="rect1" />
    <rect
       x="157.33125"
       y="540.58313"
       width="260.2153"
       height="57.982758"
       id="rect5" />
    <rect
       x="210"
       y="662.5"
       width="133.5"
       height="51"
       id="rect3" />
    <rect
       x="203.5"
       y="568"
       width="191.5"
       height="52"
       id="rect2" />
    <rect
       x="203.5"
       y="568"
       width="191.5"
       height="52"
       id="rect4" />
    <rect
       x="203.5"
       y="568"
       width="191.5"
       height="52"
       id="rect2-7" />
    <rect
       x="157.33125"
       y="540.58313"
       width="260.2153"
       height="57.982758"
       id="rect5-2" />
    <rect
       x="157.33125"
       y="540.58313"
       width="260.2153"
       height="57.982758"
       id="rect5-0" />
    <rect
       x="157.33125"
       y="540.58313"
       width="260.2153"
       height="57.982758"
       id="rect5-2-9" />
    <rect
       x="157.33125"
       y="540.58313"
       width="260.2153"
       height="57.982758"
       id="rect5-0-7" />
    <rect
       x="157.33125"
       y="540.58313"
       width="260.2153"
       height="57.982758"
       id="rect5-2-9-9" />
    <rect
       x="157.33125"
       y="540.58313"
       width="260.2153"
       height="57.982758"
       id="rect5-0-8" />
    <rect
       x="157.33125"
       y="540.58313"
       width="260.2153"
       height="57.982758"
       id="rect5-2-9-97" />
    <rect
       x="157.33125"
       y="540.58313"
       width="260.2153"
       height="57.982758"
       id="rect5-0-8-7" />
    <rect
       x="157.33125"
       y="540.58313"
       width="260.2153"
       height="57.982758"
       id="rect5-2-9-97-8" />
    <rect
       x="157.33125"
       y="540.58313"
       width="260.2153"
       height="57.982758"
       id="rect5-0-2" />
    <rect
       x="157.33125"
       y="540.58313"
       width="260.2153"
       height="57.982758"
       id="rect5-2-9-0" />
    <rect
       x="157.33125"
       y="540.58313"
       width="260.2153"
       height="57.982758"
       id="rect5-0-7-6" />
    <rect
       x="157.33125"
       y="540.58313"
       width="260.2153"
       height="57.982758"
       id="rect5-2-9-9-1" />
    <rect
       x="157.33125"
       y="540.58313"
       width="260.2153"
       height="57.982758"
       id="rect5-0-8-7-5" />
    <rect
       x="157.33125"
       y="540.58313"
       width="260.2153"
       height="57.982758"
       id="rect5-2-9-97-8-5" />
    <rect
       x="157.33125"
       y="540.58313"
       width="260.2153"
       height="57.982758"
       id="rect5-0-88" />
    <rect
       x="157.33125"
       y="540.58313"
       width="260.2153"
       height="57.982758"
       id="rect5-2-9-4" />
    <rect
       x="157.33125"
       y="540.58313"
       width="260.2153"
       height="57.982758"
       id="rect5-0-7-3" />
    <rect
       x="157.33125"
       y="540.58313"
       width="260.2153"
       height="57.982758"
       id="rect5-2-9-9-14" />
    <rect
       x="157.33125"
       y="540.58313"
       width="260.2153"
       height="57.982758"
       id="rect5-0-8-7-9" />
    <rect
       x="157.33125"
       y="540.58313"
       width="260.2153"
       height="57.982758"
       id="rect5-2-9-97-8-2" />
    <rect
       x="157.33125"
       y="540.58313"
       width="283.43148"
       height="146.62637"
       id="rect5-6" />
    <rect
       x="157.33125"
       y="540.58313"
       width="260.2153"
       height="57.982758"
       id="rect5-2-1" />
    <rect
       x="157.33125"
       y="540.58313"
       width="260.2153"
       height="57.982758"
       id="rect5-0-8-7-5-1" />
    <rect
       x="157.33125"
       y="540.58313"
       width="260.2153"
       height="57.982758"
       id="rect5-2-9-97-8-5-5" />
    <rect
       x="157.33125"
       y="540.58313"
       width="260.2153"
       height="57.982758"
       id="rect5-6-9" />
    <rect
       x="157.33125"
       y="540.58313"
       width="260.2153"
       height="57.982758"
       id="rect5-2-1-2" />
    <rect
       x="157.33125"
       y="540.58313"
       width="260.2153"
       height="57.982758"
       id="rect5-0-29" />
  </defs>
  <g
     inkscape:label="Layer 1"
     inkscape:groupmode="layer"
     id="layer1"
     transform="translate(146.86257,39.89796)">
    <text
       xml:space="preserve"
       transform="scale(0.26458333)"
       id="text2"
       style="text-align:start;writing-mode:lr-tb;direction:ltr;white-space:pre;shape-inside:url(#rect3);display:inline;fill:#000000;fill-opacity:1;stroke:none;stroke-opacity:1" />
    <text
       xml:space="preserve"
       transform="matrix(0.78927369,0,0,0.78927369,-107.45454,-297.75344)"
       id="text4"
       style="text-align:start;writing-mode:lr-tb;direction:ltr;white-space:pre;shape-inside:url(#rect4);display:inline;fill:#000000;fill-opacity:1;stroke:none;stroke-opacity:1" />
    <path
       id="path4"
       style="fill:none;stroke:#000000"
       d="m 93.637427,60.60204 c 0,16.56854 -20.147184,30 -44.999997,30 -24.852814,0 -45,-13.43146 -45,-30 z m 0,0 c 0,-16.56854 -20.147184,-30 -44.999997,-30 -24.852814,0 -45,13.43146 -45,30 z" />
    <text
       xml:space="preserve"
       transform="matrix(0.26458333,0,0,0.26458333,-20.002887,-104.72637)"
       id="text5"
       style="font-size:48px;text-align:start;writing-mode:lr-tb;direction:ltr;white-space:pre;shape-inside:url(#rect5);display:inline;fill:#1a1a1a;fill-opacity:1;stroke:none;stroke-width:3.77953;stroke-dasharray:none;stroke-opacity:1"><tspan
         x="157.33203"
         y="584.25799"
         id="tspan3"><tspan
           style="font-family:'Latin Modern Mono';-inkscape-font-specification:'Latin Modern Mono'"
           id="tspan2">160..260</tspan></tspan></text>
    <text
       xml:space="preserve"
       transform="matrix(0.26458333,0,0,0.26458333,-2.9467993,-76.559254)"
       id="text5-1"
       style="font-size:48px;text-align:start;writing-mode:lr-tb;direction:ltr;white-space:pre;shape-inside:url(#rect5-2);display:inline;fill:#1a1a1a;fill-opacity:1;stroke:none;stroke-width:3.77953;stroke-dasharray:none;stroke-opacity:1"><tspan
         x="157.33203"
         y="584.25799"
         id="tspan5"><tspan
           style="font-family:'Latin Modern Mono';-inkscape-font-specification:'Latin Modern Mono'"
           id="tspan4">370</tspan></tspan></text>
    <text
       xml:space="preserve"
       transform="matrix(0.26458333,0,0,0.26458333,377.08881,-98.160395)"
       id="text5-9"
       style="font-size:48px;text-align:start;writing-mode:lr-tb;direction:ltr;white-space:pre;shape-inside:url(#rect5-6);display:inline;fill:#1a1a1a;fill-opacity:1;stroke:none;stroke-width:3.77953;stroke-dasharray:none;stroke-opacity:1"><tspan
         x="157.33203"
         y="584.25799"
         id="tspan7"><tspan
           style="font-family:'Latin Modern Mono';-inkscape-font-specification:'Latin Modern Mono'"
           id="tspan6">imaginary
</tspan></tspan><tspan
         x="157.33203"
         y="644.58801"
         id="tspan9"><tspan
           style="font-family:'Latin Modern Mono';-inkscape-font-specification:'Latin Modern Mono'"
           id="tspan8">node</tspan></tspan></text>
    <path
       id="path4-4-9"
       style="fill:none;stroke:#000000"
       d="m -41.36257,5.60204 c 0,16.56854 -20.147184,30 -44.999997,30 -24.852813,0 -45.000003,-13.43146 -45.000003,-30 z m 0,0 c 0,-16.56854 -20.147184,-30 -44.999997,-30 -24.852813,0 -45.000003,13.43146 -45.000003,30 z" />
    <text
       xml:space="preserve"
       transform="matrix(0.26458333,0,0,0.26458333,-144.47459,-159.72637)"
       id="text5-9-7"
       style="font-style:normal;font-variant:normal;font-weight:normal;font-stretch:normal;font-size:48px;font-family:'Latin Modern Mono';-inkscape-font-specification:'Latin Modern Mono';text-align:start;writing-mode:lr-tb;direction:ltr;white-space:pre;shape-inside:url(#rect5-6-9);display:inline;fill:#1a1a1a;fill-opacity:1;stroke:none;stroke-width:3.77953;stroke-dasharray:none;stroke-opacity:1"><tspan
         x="157.33203"
         y="583.92798"
         id="tspan10">range</tspan></text>
    <text
       xml:space="preserve"
       transform="matrix(0.26458333,0,0,0.26458333,-151.21829,-131.55925)"
       id="text5-1-1-3"
       style="font-size:48px;text-align:start;writing-mode:lr-tb;direction:ltr;white-space:pre;shape-inside:url(#rect5-2-1-2);display:inline;fill:#1a1a1a;fill-opacity:1;stroke:none;stroke-width:3.77953;stroke-dasharray:none;stroke-opacity:1"><tspan
         x="157.33203"
         y="584.25799"
         id="tspan12"><tspan
           style="font-family:'Latin Modern Mono';-inkscape-font-specification:'Latin Modern Mono'"
           id="tspan11">max_end</tspan></tspan></text>
    <path
       id="path4-0-1-0-4-7"
       style="fill:none;stroke:#000000"
       d="m 293.63743,-9.39796 c 0,16.56854 -20.14718,30 -45,30 -24.85281,0 -45,-13.43146 -45,-30 z m 0,0 c 0,-16.56854 -20.14718,-30 -45,-30 -24.85281,0 -45,13.43146 -45,30 z" />
    <text
       xml:space="preserve"
       transform="matrix(0.26458333,0,0,0.26458333,180.34636,-174.72637)"
       id="text5-6-2-3-3-6"
       style="font-size:48px;text-align:start;writing-mode:lr-tb;direction:ltr;white-space:pre;shape-inside:url(#rect5-0-8-7-5-1);display:inline;fill:#1a1a1a;fill-opacity:1;stroke:none;stroke-width:3.77953;stroke-dasharray:none;stroke-opacity:1"><tspan
         x="157.33203"
         y="584.25799"
         id="tspan14"><tspan
           style="font-family:'Latin Modern Mono';-inkscape-font-specification:'Latin Modern Mono'"
           id="tspan13">225..315</tspan></tspan></text>
    <text
       xml:space="preserve"
       transform="matrix(0.26458333,0,0,0.26458333,197.0532,-146.55925)"
       id="text5-1-2-3-1-7-6"
       style="font-style:normal;font-variant:normal;font-weight:normal;font-stretch:normal;font-size:48px;font-family:'Latin Modern Mono';-inkscape-font-specification:'Latin Modern Mono';text-align:start;writing-mode:lr-tb;direction:ltr;white-space:pre;shape-inside:url(#rect5-2-9-97-8-5-5);display:inline;fill:#1a1a1a;fill-opacity:1;stroke:none;stroke-width:3.77953;stroke-dasharray:none;stroke-opacity:1"><tspan
         x="157.33203"
         y="583.92798"
         id="tspan15">390</tspan></text>
    <path
       id="path4-0"
       style="fill:none;stroke:#000000"
       d="m -56.36257,200.60204 c 0,16.56854 -20.147184,30 -45,30 -24.85281,0 -45,-13.43146 -45,-30 z m 0,0 c 0,-16.56854 -20.147184,-30 -45,-30 -24.85281,0 -45,13.43146 -45,30 z" />
    <text
       xml:space="preserve"
       transform="matrix(0.26458333,0,0,0.26458333,-170.00289,35.273627)"
       id="text5-6"
       style="font-size:48px;text-align:start;writing-mode:lr-tb;direction:ltr;white-space:pre;shape-inside:url(#rect5-0);display:inline;fill:#1a1a1a;fill-opacity:1;stroke:none;stroke-width:3.77953;stroke-dasharray:none;stroke-opacity:1"><tspan
         x="157.33203"
         y="584.25799"
         id="tspan17"><tspan
           style="font-family:'Latin Modern Mono';-inkscape-font-specification:'Latin Modern Mono'"
           id="tspan16">100..350
</tspan></tspan></text>
    <text
       xml:space="preserve"
       transform="matrix(0.26458333,0,0,0.26458333,130.33366,35.273627)"
       id="text5-6-1"
       style="font-size:48px;text-align:start;writing-mode:lr-tb;direction:ltr;white-space:pre;shape-inside:url(#rect5-0-29);display:inline;fill:#1a1a1a;fill-opacity:1;stroke:none;stroke-width:3.77953;stroke-dasharray:none;stroke-opacity:1"><tspan
         x="157.33203"
         y="584.25799"
         id="tspan19"><tspan
           style="font-family:'Latin Modern Mono';-inkscape-font-specification:'Latin Modern Mono'"
           id="tspan18">200..360
</tspan></tspan></text>
    <text
       xml:space="preserve"
       transform="matrix(0.26458333,0,0,0.26458333,-152.9468,63.440746)"
       id="text5-1-2"
       style="font-size:48px;text-align:start;writing-mode:lr-tb;direction:ltr;white-space:pre;shape-inside:url(#rect5-2-9);display:inline;fill:#1a1a1a;fill-opacity:1;stroke:none;stroke-width:3.77953;stroke-dasharray:none;stroke-opacity:1"><tspan
         x="157.33203"
         y="584.25799"
         id="tspan21"><tspan
           style="font-family:'Latin Modern Mono';-inkscape-font-specification:'Latin Modern Mono'"
           id="tspan20">350</tspan></tspan></text>
    <path
       id="path4-0-2"
       style="fill:none;stroke:#000000"
       d="m 43.637427,200.60204 c 0,16.56854 -20.147184,30 -44.999997,30 -24.852814,0 -45,-13.43146 -45,-30 z m 0,0 c 0,-16.56854 -20.147184,-30 -44.999997,-30 -24.852814,0 -45,13.43146 -45,30 z" />
    <text
       xml:space="preserve"
       transform="matrix(0.26458333,0,0,0.26458333,-70.002887,35.273627)"
       id="text5-6-3"
       style="font-size:48px;text-align:start;writing-mode:lr-tb;direction:ltr;white-space:pre;shape-inside:url(#rect5-0-7);display:inline;fill:#1a1a1a;fill-opacity:1;stroke:none;stroke-width:3.77953;stroke-dasharray:none;stroke-opacity:1"><tspan
         x="157.33203"
         y="584.25799"
         id="tspan23"><tspan
           style="font-family:'Latin Modern Mono';-inkscape-font-specification:'Latin Modern Mono'"
           id="tspan22">150..250</tspan></tspan></text>
    <text
       xml:space="preserve"
       transform="matrix(0.26458333,0,0,0.26458333,-52.997599,63.440746)"
       id="text5-1-2-5"
       style="font-size:48px;text-align:start;writing-mode:lr-tb;direction:ltr;white-space:pre;shape-inside:url(#rect5-2-9-9);display:inline;fill:#1a1a1a;fill-opacity:1;stroke:none;stroke-width:3.77953;stroke-dasharray:none;stroke-opacity:1"><tspan
         x="157.33203"
         y="584.25799"
         id="tspan25"><tspan
           style="font-family:'Latin Modern Mono';-inkscape-font-specification:'Latin Modern Mono'"
           id="tspan24">250</tspan></tspan></text>
    <path
       id="path4-0-6"
       style="fill:none;stroke:#000000"
       d="m 143.63743,200.60204 c 0,16.56854 -20.14719,30 -45,30 -24.852814,0 -45,-13.43146 -45,-30 z m 0,0 c 0,-16.56854 -20.14719,-30 -45,-30 -24.852814,0 -45,13.43146 -45,30 z" />
    <text
       xml:space="preserve"
       transform="matrix(0.26458333,0,0,0.26458333,29.997115,35.273627)"
       id="text5-6-5"
       style="font-size:48px;text-align:start;writing-mode:lr-tb;direction:ltr;white-space:pre;shape-inside:url(#rect5-0-2);display:inline;fill:#1a1a1a;fill-opacity:1;stroke:none;stroke-width:3.77953;stroke-dasharray:none;stroke-opacity:1"><tspan
         x="157.33203"
         y="584.25799"
         id="tspan27"><tspan
           style="font-family:'Latin Modern Mono';-inkscape-font-specification:'Latin Modern Mono'"
           id="tspan26">170..220</tspan></tspan></text>
    <text
       xml:space="preserve"
       transform="matrix(0.26458333,0,0,0.26458333,47.002402,63.440746)"
       id="text5-1-2-3"
       style="font-size:48px;text-align:start;writing-mode:lr-tb;direction:ltr;white-space:pre;shape-inside:url(#rect5-2-9-0);display:inline;fill:#1a1a1a;fill-opacity:1;stroke:none;stroke-width:3.77953;stroke-dasharray:none;stroke-opacity:1"><tspan
         x="157.33203"
         y="584.25799"
         id="tspan29"><tspan
           style="font-family:'Latin Modern Mono';-inkscape-font-specification:'Latin Modern Mono'"
           id="tspan28">220</tspan></tspan></text>
    <path
       id="path4-0-2-5"
       style="fill:none;stroke:#000000"
       d="m 243.63743,200.60204 c 0,16.56854 -20.14718,30 -45,30 -24.85281,0 -45,-13.43146 -45,-30 z m 0,0 c 0,-16.56854 -20.14718,-30 -45,-30 -24.85281,0 -45,13.43146 -45,30 z" />
    <text
       xml:space="preserve"
       transform="matrix(0.26458333,0,0,0.26458333,139.60197,35.273627)"
       id="text5-6-3-2"
       style="font-size:48px;text-align:start;writing-mode:lr-tb;direction:ltr;white-space:pre;shape-inside:url(#rect5-0-7-6);display:inline;fill:#1a1a1a;fill-opacity:1;stroke:none;stroke-width:3.77953;stroke-dasharray:none;stroke-opacity:1" />
    <text
       xml:space="preserve"
       transform="matrix(0.26458333,0,0,0.26458333,147.0532,63.440746)"
       id="text5-1-2-5-4"
       style="font-size:48px;text-align:start;writing-mode:lr-tb;direction:ltr;white-space:pre;shape-inside:url(#rect5-2-9-9-1);display:inline;fill:#1a1a1a;fill-opacity:1;stroke:none;stroke-width:3.77953;stroke-dasharray:none;stroke-opacity:1"><tspan
         x="157.33203"
         y="584.25799"
         id="tspan31"><tspan
           style="font-family:'Latin Modern Mono';-inkscape-font-specification:'Latin Modern Mono'"
           id="tspan30">360</tspan></tspan></text>
    <path
       id="path4-0-8"
       style="fill:none;stroke:#000000"
       d="m 343.63743,200.60204 c 0,16.56854 -20.14718,30 -45,30 -24.85281,0 -45,-13.43146 -45,-30 z m 0,0 c 0,-16.56854 -20.14718,-30 -45,-30 -24.85281,0 -45,13.43146 -45,30 z" />
    <text
       xml:space="preserve"
       transform="matrix(0.26458333,0,0,0.26458333,230.33366,35.273627)"
       id="text5-6-9"
       style="font-size:48px;text-align:start;writing-mode:lr-tb;direction:ltr;white-space:pre;shape-inside:url(#rect5-0-88);display:inline;fill:#1a1a1a;fill-opacity:1;stroke:none;stroke-width:3.77953;stroke-dasharray:none;stroke-opacity:1"><tspan
         x="157.33203"
         y="584.25799"
         id="tspan33"><tspan
           style="font-family:'Latin Modern Mono';-inkscape-font-specification:'Latin Modern Mono'"
           id="tspan32">250..350</tspan></tspan></text>
    <text
       xml:space="preserve"
       transform="matrix(0.26458333,0,0,0.26458333,247.0532,63.440746)"
       id="text5-1-2-6"
       style="font-size:48px;text-align:start;writing-mode:lr-tb;direction:ltr;white-space:pre;shape-inside:url(#rect5-2-9-4);display:inline;fill:#1a1a1a;fill-opacity:1;stroke:none;stroke-width:3.77953;stroke-dasharray:none;stroke-opacity:1"><tspan
         x="157.33203"
         y="584.25799"
         id="tspan35"><tspan
           style="font-family:'Latin Modern Mono';-inkscape-font-specification:'Latin Modern Mono'"
           id="tspan34">350</tspan></tspan></text>
    <path
       id="path4-0-2-50"
       style="fill:none;stroke:#000000"
       d="m 443.63743,200.60204 c 0,16.56854 -20.14718,30 -45,30 -24.85281,0 -45,-13.43146 -45,-30 z m 0,0 c 0,-16.56854 -20.14718,-30 -45,-30 -24.85281,0 -45,13.43146 -45,30 z" />
    <text
       xml:space="preserve"
       transform="matrix(0.26458333,0,0,0.26458333,330.38446,35.273627)"
       id="text5-6-3-4"
       style="font-size:48px;text-align:start;writing-mode:lr-tb;direction:ltr;white-space:pre;shape-inside:url(#rect5-0-7-3);display:inline;fill:#1a1a1a;fill-opacity:1;stroke:none;stroke-width:3.77953;stroke-dasharray:none;stroke-opacity:1"><tspan
         x="157.33203"
         y="584.25799"
         id="tspan37"><tspan
           style="font-family:'Latin Modern Mono';-inkscape-font-specification:'Latin Modern Mono'"
           id="tspan36">370..390</tspan></tspan></text>
    <text
       xml:space="preserve"
       transform="matrix(0.26458333,0,0,0.26458333,347.0532,63.440746)"
       id="text5-1-2-5-7"
       style="font-size:48px;text-align:start;writing-mode:lr-tb;direction:ltr;white-space:pre;shape-inside:url(#rect5-2-9-9-14);display:inline;fill:#1a1a1a;fill-opacity:1;stroke:none;stroke-width:3.77953;stroke-dasharray:none;stroke-opacity:1"><tspan
         x="157.33203"
         y="584.25799"
         id="tspan39"><tspan
           style="font-family:'Latin Modern Mono';-inkscape-font-specification:'Latin Modern Mono'"
           id="tspan38">390</tspan></tspan></text>
    <path
       id="path4-0-1-0"
       style="fill:none;stroke:#000000"
       d="m -6.36257,130.60204 c 0,16.56854 -20.147184,30 -44.999997,30 -24.852814,0 -45,-13.43146 -45,-30 z m 0,0 c 0,-16.56854 -20.147184,-30 -44.999997,-30 -24.852814,0 -45,13.43146 -45,30 z" />
    <text
       xml:space="preserve"
       transform="matrix(0.26458333,0,0,0.26458333,-120.00288,-34.726373)"
       id="text5-6-2-3"
       style="font-size:48px;text-align:start;writing-mode:lr-tb;direction:ltr;white-space:pre;shape-inside:url(#rect5-0-8-7);display:inline;fill:#1a1a1a;fill-opacity:1;stroke:none;stroke-width:3.77953;stroke-dasharray:none;stroke-opacity:1"><tspan
         x="157.33203"
         y="584.25799"
         id="tspan41"><tspan
           style="font-family:'Latin Modern Mono';-inkscape-font-specification:'Latin Modern Mono'"
           id="tspan40">120..200</tspan></tspan></text>
    <text
       xml:space="preserve"
       transform="matrix(0.26458333,0,0,0.26458333,-102.9468,-6.559254)"
       id="text5-1-2-3-1"
       style="font-size:48px;text-align:start;writing-mode:lr-tb;direction:ltr;white-space:pre;shape-inside:url(#rect5-2-9-97-8);display:inline;fill:#1a1a1a;fill-opacity:1;stroke:none;stroke-width:3.77953;stroke-dasharray:none;stroke-opacity:1"><tspan
         x="157.33203"
         y="584.25799"
         id="tspan43"><tspan
           style="font-family:'Latin Modern Mono';-inkscape-font-specification:'Latin Modern Mono'"
           id="tspan42">350</tspan></tspan></text>
    <path
       id="path4-0-1-0-4"
       style="fill:none;stroke:#000000"
       d="m 193.63743,130.60204 c 0,16.56854 -20.14719,30 -45,30 -24.85281,0 -45,-13.43146 -45,-30 z m 0,0 c 0,-16.56854 -20.14719,-30 -45,-30 -24.85281,0 -45,13.43146 -45,30 z" />
    <text
       xml:space="preserve"
       transform="matrix(0.26458333,0,0,0.26458333,79.997115,-34.726373)"
       id="text5-6-2-3-3"
       style="font-size:48px;text-align:start;writing-mode:lr-tb;direction:ltr;white-space:pre;shape-inside:url(#rect5-0-8-7-5);display:inline;fill:#1a1a1a;fill-opacity:1;stroke:none;stroke-width:3.77953;stroke-dasharray:none;stroke-opacity:1"><tspan
         x="157.33203"
         y="584.25799"
         id="tspan45"><tspan
           style="font-family:'Latin Modern Mono';-inkscape-font-specification:'Latin Modern Mono'"
           id="tspan44">180..370</tspan></tspan></text>
    <text
       xml:space="preserve"
       transform="matrix(0.26458333,0,0,0.26458333,97.053202,-6.559254)"
       id="text5-1-2-3-1-7"
       style="font-size:48px;text-align:start;writing-mode:lr-tb;direction:ltr;white-space:pre;shape-inside:url(#rect5-2-9-97-8-5);display:inline;fill:#1a1a1a;fill-opacity:1;stroke:none;stroke-width:3.77953;stroke-dasharray:none;stroke-opacity:1"><tspan
         x="157.33203"
         y="584.25799"
         id="tspan47"><tspan
           style="font-family:'Latin Modern Mono';-inkscape-font-specification:'Latin Modern Mono'"
           id="tspan46">370</tspan></tspan></text>
    <path
       id="path4-0-1-0-2"
       style="fill:none;stroke:#000000"
       d="m 393.63743,130.60204 c 0,16.56854 -20.14718,30 -45,30 -24.85281,0 -45,-13.43146 -45,-30 z m 0,0 c 0,-16.56854 -20.14718,-30 -45,-30 -24.85281,0 -45,13.43146 -45,30 z" />
    <text
       xml:space="preserve"
       transform="matrix(0.26458333,0,0,0.26458333,280.38446,-34.726373)"
       id="text5-6-2-3-7"
       style="font-size:48px;text-align:start;writing-mode:lr-tb;direction:ltr;white-space:pre;shape-inside:url(#rect5-0-8-7-9);display:inline;fill:#1a1a1a;fill-opacity:1;stroke:none;stroke-width:3.77953;stroke-dasharray:none;stroke-opacity:1"><tspan
         x="157.33203"
         y="584.25799"
         id="tspan51"><tspan
           style="font-family:'Latin Modern Mono';-inkscape-font-specification:'Latin Modern Mono'"
           id="tspan48">300..390</tspan></tspan></text>
    <text
       xml:space="preserve"
       transform="matrix(0.26458333,0,0,0.26458333,297.0532,-6.559254)"
       id="text5-1-2-3-1-2"
       style="font-size:48px;text-align:start;writing-mode:lr-tb;direction:ltr;white-space:pre;shape-inside:url(#rect5-2-9-97-8-2);display:inline;fill:#1a1a1a;fill-opacity:1;stroke:none;stroke-width:3.77953;stroke-dasharray:none;stroke-opacity:1"><tspan
         x="157.33203"
         y="584.25799"
         id="tspan53"><tspan
           style="font-family:'Latin Modern Mono';-inkscape-font-specification:'Latin Modern Mono'"
           id="tspan52">390</tspan></tspan></text>
    <path
       id="rect6"
       style="fill:none;stroke:#000000;stroke-width:0.983847"
       transform="rotate(45)"
       d="M 77.370705,176.08172 V 150.00835 H 103.44407"
       sodipodi:nodetypes="ccc" />
    <path
       id="rect6-5"
       style="fill:none;stroke:#000000;stroke-width:0.983847"
       d="m 130.20077,179.21793 18.43666,-18.43666 18.43665,18.43666"
       sodipodi:nodetypes="ccc" />
    <path
       id="rect6-2"
       style="fill:none;stroke:#000000;stroke-width:0.983847"
       d="m 330.20078,179.21792 18.43666,-18.43665 18.43665,18.43665"
       sodipodi:nodetypes="ccc" />
    <path
       id="path7-7"
       d="M -12.467103,116.21734 50.860331,91.047193 50.47769,90.123412 -12.849743,115.29356 Z m 122.209023,-0.008 0.38268,-0.92387 -59.648992,-25.161377 -0.382682,0.923879 z"
       sodipodi:nodetypes="cccccccccc" />
    <path
       id="path8"
       d="M -12.467103,116.21734 50.860331,91.047193 50.47769,90.123412 -12.849743,115.29356 Z m 122.209023,-0.008 0.38268,-0.92387 -59.648992,-25.161377 -0.382682,0.923879 z"
       sodipodi:nodetypes="cccccccccc" />
    <path
       id="path7-7-9"
       d="m 387.5329,116.30511 63.30275,-25.268874 -0.38264,-0.92378 -63.30275,25.268874 z m 62.91803,-26.191974 c -597.33818,-130.109812 -597.33818,-130.109812 0,0 z"
       sodipodi:nodetypes="ccccccc" />
    <g
       id="g9"
       transform="translate(-0.7006845,-5.8208336)">
      <path
         style="fill:none;stroke:#000000;stroke-width:1;stroke-dasharray:none;stroke-opacity:1"
         d="M 92.163922,57.109862 249.43834,26.933127"
         id="path9"
         sodipodi:nodetypes="cc" />
      <path
         style="fill:none;stroke:#000000;stroke-width:1;stroke-dasharray:none;stroke-opacity:1"
         d="M 406.51231,57.109862 249.23789,26.933127"
         id="path9-3"
         sodipodi:nodetypes="cc" />
    </g>
    <ellipse
       style="fill:none;stroke:#000000;stroke-width:1;stroke-dasharray:none;stroke-opacity:1"
       id="path10"
       cx="448.63742"
       cy="60.602039"
       rx="45"
       ry="30" />
    <text
       xml:space="preserve"
       transform="matrix(0.26458333,0,0,0.26458333,-146.86257,-39.89796)"
       id="text1"
       style="font-style:normal;font-variant:normal;font-weight:normal;font-stretch:normal;font-family:'Latin Modern Mono';-inkscape-font-specification:'Latin Modern Mono';text-align:start;writing-mode:lr-tb;direction:ltr;white-space:pre;shape-inside:url(#rect1);display:inline;fill:none;stroke:#000000;stroke-width:3.77953" />
  </g>
</svg>
